<?xml version="1.0"?>
<svg xmlns="http://www.w3.org/2000/svg" id="Layer_1" data-name="Layer 1" viewBox="0 0 512 512" width="512" height="512"><title>Locations</title><g id="_Group_2" data-name=" Group 2"><path d="M415.66,210.77a158.285,158.285,0,0,1-9.53,64.89c-7.9,21.67-20.78,41.18-36.57,58L256,454.61,142.44,333.66c-15.79-16.82-28.67-36.33-36.57-58a158.285,158.285,0,0,1-9.53-64.89C101.77,129.43,166.73,57.39,256,57.39S410.23,129.43,415.66,210.77Zm-50.74-1.92C364.92,147.08,316.16,97,256,97S147.08,147.08,147.08,208.85,195.84,320.69,256,320.69,364.92,270.62,364.92,208.85Z" style="fill:#e48e66"/><path d="M256,97c60.16,0,108.92,50.08,108.92,111.85S316.16,320.69,256,320.69,147.08,270.62,147.08,208.85,195.84,97,256,97Z" style="fill:#f8ec7d"/><path d="M137.337,338.452,250.9,459.4a7,7,0,0,0,10.207,0l113.559-120.95c17.387-18.521,30.187-38.841,38.043-60.391a164.483,164.483,0,0,0,9.939-67.756A174.586,174.586,0,0,0,372.229,98.637a164.124,164.124,0,0,0-232.458,0A174.586,174.586,0,0,0,89.355,210.3a164.5,164.5,0,0,0,9.938,67.757C107.151,299.612,119.951,319.931,137.337,338.452ZM103.324,211.236a160.59,160.59,0,0,1,46.364-102.717,150.124,150.124,0,0,1,212.624,0,160.593,160.593,0,0,1,46.364,102.72,150.563,150.563,0,0,1-9.123,62.024c-7.2,19.764-19.013,38.473-35.1,55.606L256,444.383,147.543,328.869c-16.083-17.132-27.891-35.841-35.1-55.609A150.576,150.576,0,0,1,103.324,211.236Z" style="fill:#63316d"/><path d="M256,327.69c63.918,0,115.92-53.312,115.92-118.84S319.918,90,256,90,140.08,143.316,140.08,208.85,192.082,327.69,256,327.69ZM256,104c56.2,0,101.92,47.036,101.92,104.85S312.2,313.69,256,313.69,154.08,266.659,154.08,208.85,199.8,104,256,104Z" style="fill:#63316d"/><path d="M237.24,244.27a7,7,0,0,0,9.785.112l63.81-60.95a7,7,0,0,0-9.67-10.124L242.3,229.533,210.95,198.18a7,7,0,1,0-9.9,9.9Z" style="fill:#63316d"/></g></svg>
